# xmcd
# Track frame offsets:
# 150
# 9188
# 21779
# 31801
# 41683
# 49943
# 62656
# 76794
# 85598
# 95527
# 108474
# 120765
# 133131
# 144794
# 155013
# 165738
# 176238
# 184610
# 194501
# 203914
# 214827
# 224549
# 233503
# 245185
# 255742
#
# Disc length: 3522 seconds
# Revision: 0
# Processed by: cddbd v1.5.2PL0 Copyright (c) Steve Scherf et al.
# Submitted via: VisiTrax 2.11.3.279 - For more info visit www.synapsa.com
#
DISCID=550dc019
DTITLE=Various (1950's and 1960's) Pop and R&B and Soul Artists - Northern Soul Kic
DTITLE=ks - 50 Original Soul Anthems and Dance Floor Classics: CD2: ReMastere
DTITLE=d Tracks
DYEAR=1973
DGENRE=R&B
TTITLE0=Bobby Freeman - Shame On You Miss Johnson*
TTITLE1=Wilson Pickett - Let Me Be Your Boy*
TTITLE2=Eugene Remus - Hold Me Tight*
TTITLE3=Eddie Holland - True Love Will Go A Mighty Long Way*
TTITLE4=Charles Sheffield - It's Your Voodoo Working*
TTITLE5=LaBrenda Ben and The Beljeans - The Chaparone*
TTITLE6=Hank Ballard and The Midniters - Let's Go Again (Where We Went Last Nigh
TTITLE6=t)*
TTITLE7=Brenda Holloway and The Carrolls - I Aint Gopnna Take You Back*
TTITLE8=Benny Spellman - Fortune Teller*
TTITLE9=Curtis Lee - Under The Moon Of Love*
TTITLE10=Van Dellos The - I Need You*
TTITLE11=Elkie Brooks - The Way You Do The Things You Do*
TTITLE12=Sherri Taylor - He's The One That Rings My Bell*
TTITLE13=Impressions The - Little Young Lover*
TTITLE14=Clarence "Frogman" Henry - Ain't Got No Home*
TTITLE15=Jimmy Ricks and The Raves - Daddy Rollin' Stone*
TTITLE16=Destinations The - Come On And Let Me Love You*
TTITLE17=Ike and Tina Turner - Mind In A Whirl*
TTITLE18=Derek Martin - Don't Put Me Down Like This*
TTITLE19=Dynamics The - Misery*
TTITLE20=Carrol Connors - I Wanna Know*
TTITLE21=Arthur Alexander - A Shot Of Rhythm and Blues*
TTITLE22=Roy Hamilton - Earthquake*
TTITLE23=Shirelles The - Voice Of The Experience*
TTITLE24=Chuck Jackson - Everybody Needs Love*
EXTD=Compilation and ReMastering: Soul Jam Records: 2014
EXTT0=
EXTT1=
EXTT2=
EXTT3=
EXTT4=
EXTT5=
EXTT6=
EXTT7=
EXTT8=
EXTT9=
EXTT10=
EXTT11=
EXTT12=
EXTT13=
EXTT14=
EXTT15=
EXTT16=
EXTT17=
EXTT18=
EXTT19=
EXTT20=
EXTT21=
EXTT22=
EXTT23=
EXTT24=
PLAYORDER=
